<?xml version="1.0" encoding="UTF-8" standalone="no"?>
<!-- Created with Inkscape (http://www.inkscape.org/) -->

<svg
   xmlns:dc="http://purl.org/dc/elements/1.1/"
   xmlns:cc="http://creativecommons.org/ns#"
   xmlns:rdf="http://www.w3.org/1999/02/22-rdf-syntax-ns#"
   xmlns:svg="http://www.w3.org/2000/svg"
   xmlns="http://www.w3.org/2000/svg"
   xmlns:sodipodi="http://sodipodi.sourceforge.net/DTD/sodipodi-0.dtd"
   xmlns:inkscape="http://www.inkscape.org/namespaces/inkscape"
   id="svg3060"
   version="1.1"
   inkscape:version="0.48.1 r9760"
   width="16"
   height="16"
   sodipodi:docname="dwarf-fortress.svg">
  <metadata
     id="metadata3066">
    <rdf:RDF>
      <cc:Work
         rdf:about="">
        <dc:format>image/svg+xml</dc:format>
        <dc:type
           rdf:resource="http://purl.org/dc/dcmitype/StillImage" />
        <dc:title></dc:title>
      </cc:Work>
    </rdf:RDF>
  </metadata>
  <defs
     id="defs3064" />
  <sodipodi:namedview
     pagecolor="#ffffff"
     bordercolor="#666666"
     borderopacity="1"
     objecttolerance="10"
     gridtolerance="10"
     guidetolerance="10"
     inkscape:pageopacity="0"
     inkscape:pageshadow="2"
     inkscape:window-width="1918"
     inkscape:window-height="1131"
     id="namedview3062"
     showgrid="true"
     inkscape:snap-global="true"
     inkscape:snap-to-guides="false"
     inkscape:snap-grids="true"
     inkscape:zoom="31.25"
     inkscape:cx="7.7878745"
     inkscape:cy="3.0704561"
     inkscape:window-x="0"
     inkscape:window-y="24"
     inkscape:window-maximized="1"
     inkscape:current-layer="svg3060">
    <inkscape:grid
       type="xygrid"
       id="grid3604" />
  </sodipodi:namedview>
  <g
     id="g4478">
    <path
       inkscape:connector-curvature="0"
       id="path3618"
       d="m 5,0 7,0 0,1 1,0 0,1 1,0 0,1 1,0 0,2 -1,0 0,2 1,0 0,1 1,0 0,1 -1,0 0,1 1,0 0,1 -1,0 0,3 -1,0 0,1 -2,0 0,1 -3,0 0,-1 -1,0 0,1 -6,0 0,-1 -1,0 0,-5 1,0 L 2,7 1,7 1,6 2,6 2,3 3,3 3,2 4,2 4,1 5,1 z"
       style="fill:#303a37;stroke:#000000;stroke-width:0;stroke-linecap:butt;stroke-linejoin:miter;stroke-opacity:1;opacity:1;stroke-miterlimit:4;stroke-dasharray:none;fill-opacity:1" />
    <path
       inkscape:connector-curvature="0"
       id="path4388"
       d="m 5,1 7,0 0,1 1,0 0,1 1,0 0,2 -1,0 0,2 1,0 0,1 1,0 0,1 -1,0 0,1 1,0 0,1 L 6,11 6,10 5,10 5,9 3,9 3,7 2,7 2,6 3,6 3,3 4,3 4,2 5,2 z"
       style="fill:#ffdbb2;stroke:#000000;stroke-width:0;stroke-linecap:butt;stroke-linejoin:miter;stroke-opacity:1;stroke-miterlimit:4;stroke-dasharray:none;fill-opacity:1;opacity:1" />
    <path
       inkscape:connector-curvature="0"
       id="path4413"
       d="m 3,9 0,1 -1,0 0,5 2,0 0,-1 1,0 0,2 2,0 0,-2 3,0 0,2 2,0 0,-2 2,0 0,-2 -1,0 0,-1 -7,0 0,-1 -1,0 0,-1 z"
       style="fill:#ffdbb2;stroke:#000000;stroke-width:0;stroke-linecap:butt;stroke-linejoin:miter;stroke-opacity:1;stroke-miterlimit:4;stroke-dasharray:none;fill-opacity:1;opacity:1" />
    <path
       inkscape:connector-curvature="0"
       id="path4415"
       d="m 2,10 0,2 2,0 0,1 1,0 0,1 7,0 0,-2 1,0 0,-1 -7,0 0,-1 -1,0 0,-1 -2,0 0,1 z"
       style="fill:#3c6b1b;stroke:#000000;stroke-width:0;stroke-linecap:butt;stroke-linejoin:miter;stroke-opacity:1;stroke-miterlimit:4;stroke-dasharray:none;fill-opacity:1;opacity:1" />
    <path
       inkscape:connector-curvature="0"
       id="path4417"
       d="m 2,12 1,0 0,-1 1,0 0,-1 1,0 0,2 4,0 0,-1 -3,0 0,-1 -1,0 0,-1 -2,0 0,1 -1,0 z"
       style="fill:#325916;stroke:#000000;stroke-width:0;stroke-linecap:butt;stroke-linejoin:miter;stroke-opacity:1;stroke-miterlimit:4;stroke-dasharray:none;fill-opacity:1;opacity:1" />
    <path
       inkscape:connector-curvature="0"
       id="path4419"
       d="m 3,9 0,1 2,0 0,6 2,0 0,-2 3,0 0,2 2,0 0,-5 -1,0 0,1 -1,0 0,1 -3,0 0,-1 -1,0 0,-2 -1,0 0,-1 z"
       style="fill:#8bb100;stroke:#000000;stroke-width:0;stroke-linecap:butt;stroke-linejoin:miter;stroke-opacity:1;stroke-miterlimit:4;stroke-dasharray:none;fill-opacity:1;opacity:1" />
    <path
       inkscape:connector-curvature="0"
       id="path4421"
       d="m 3,9 0,1 2,0 0,6 1,0 0,-6 -1,0 0,-1 z"
       style="fill:#789900;stroke:#000000;stroke-width:0;stroke-linecap:butt;stroke-linejoin:miter;stroke-opacity:1;stroke-miterlimit:4;stroke-dasharray:none;fill-opacity:1;opacity:1" />
    <path
       inkscape:connector-curvature="0"
       id="path4423"
       d="m 10,14 1,0 0,2 -1,0 z"
       style="fill:#789900;stroke:#000000;stroke-width:0;stroke-linecap:butt;stroke-linejoin:miter;stroke-opacity:1;stroke-miterlimit:4;stroke-dasharray:none;fill-opacity:1;opacity:1" />
    <path
       inkscape:connector-curvature="0"
       id="path4425"
       d="m 6,15 c 0,0 0,1 0,1 l 1,0 0,-1 z"
       style="fill:#a6bf00;stroke:#000000;stroke-width:0;stroke-linecap:butt;stroke-linejoin:miter;stroke-opacity:1;stroke-miterlimit:4;stroke-dasharray:none;fill-opacity:1;opacity:1" />
    <path
       style="fill:#a6bf00;fill-opacity:1;stroke:#000000;stroke-width:0;stroke-linecap:butt;stroke-linejoin:miter;stroke-miterlimit:4;stroke-opacity:1;stroke-dasharray:none;opacity:1"
       d="m 11,15 c 0,0 0,1 0,1 l 1,0 0,-1 z"
       id="path4427"
       inkscape:connector-curvature="0" />
    <path
       inkscape:connector-curvature="0"
       id="path4429"
       d="m 14,14 0,-2 -2,0 0,2 z"
       style="fill:#fabe89;stroke:#000000;stroke-width:0;stroke-linecap:butt;stroke-linejoin:miter;stroke-opacity:1;stroke-miterlimit:4;stroke-dasharray:none;fill-opacity:1;opacity:1" />
    <path
       inkscape:connector-curvature="0"
       id="path4431"
       d="m 13,12 0,2 -1,0 0,-2 z"
       style="fill:#e5ab87;stroke:#000000;stroke-width:0;stroke-linecap:butt;stroke-linejoin:miter;stroke-opacity:1;stroke-miterlimit:4;stroke-dasharray:none;fill-opacity:1;opacity:1" />
    <path
       inkscape:connector-curvature="0"
       id="path4433"
       d="m 3,15 0,-3 -1,0 0,3 z"
       style="fill:#fabe89;stroke:#000000;stroke-width:0;stroke-linecap:butt;stroke-linejoin:miter;stroke-opacity:1;stroke-miterlimit:4;stroke-dasharray:none;fill-opacity:1;opacity:1" />
    <path
       inkscape:connector-curvature="0"
       id="path4435"
       d="m 8,3 0,1 3,0 0,-1 1,0 0,1 0,1 -1,0 0,1 -1,0 0,1 L 6,7 6,5 7,5 7,3 z"
       style="fill:#fabe89;stroke:#000000;stroke-width:0;stroke-linecap:butt;stroke-linejoin:miter;stroke-opacity:1;stroke-miterlimit:4;stroke-dasharray:none;fill-opacity:1;opacity:1" />
    <path
       inkscape:connector-curvature="0"
       id="path4437"
       d="m 10,5 0,1 2,0 0,1 -3,0 0,-1 -1,0 0,2 5,0 0,-3 z"
       style="fill:#e5ab87;stroke:#000000;stroke-width:0;stroke-linecap:butt;stroke-linejoin:miter;stroke-opacity:1;stroke-miterlimit:4;stroke-dasharray:none;fill-opacity:1;opacity:1" />
    <path
       inkscape:connector-curvature="0"
       id="path4439"
       d="M 9,6 9,5 5,5 5,6 7,6 7,7 8,7 8,6 z"
       style="fill:#cc9078;stroke:#000000;stroke-width:0;stroke-linecap:butt;stroke-linejoin:miter;stroke-opacity:1;stroke-miterlimit:4;stroke-dasharray:none;fill-opacity:1;opacity:1" />
    <path
       inkscape:connector-curvature="0"
       id="path4441"
       d="M 7,5 7,6 8,6 8,5 z"
       style="fill:#000000;stroke:#000000;stroke-width:0;stroke-linecap:butt;stroke-linejoin:miter;stroke-opacity:1;stroke-miterlimit:4;stroke-dasharray:none;fill-opacity:1" />
    <path
       inkscape:connector-curvature="0"
       id="path4443"
       d="m 11,5 0,1 1,0 0,-1 z"
       style="fill:#000000;stroke:#000000;stroke-width:0;stroke-linecap:butt;stroke-linejoin:miter;stroke-opacity:1;stroke-miterlimit:4;stroke-dasharray:none;fill-opacity:1" />
    <path
       id="path4392"
       d="M 5,1 5,2 4,2 4,3 3,3 3,6 2,6 l 0,1 1,0 0,2 2,0 0,1 1,0 0,1 9,0 0,-1 -1,0 0,-1 1,0 0,-1 -1,0 0,-1 -1,0 0,-1 -1,0 0,2 L 9,8 9,7 6,7 6,6 5,6 5,5 9,5 9,4 7,4 7,3 l 5,0 0,1 -1,0 0,1 2,0 1,0 0,-2 -1,0 0,-1 -1,0 0,-1 -7,0 z"
       style="fill:#706e28;fill-opacity:1;stroke:#000000;stroke-width:0;stroke-linecap:butt;stroke-linejoin:miter;stroke-miterlimit:4;stroke-opacity:1;stroke-dasharray:none"
       inkscape:connector-curvature="0" />
    <path
       inkscape:connector-curvature="0"
       id="path4445"
       d="m 5,2 0,1 -1,0 0,4 1,0 0,1 3,0 0,1 1,0 0,-1 2,0 0,1 -2,0 0,1 4,0 0,1 L 6,11 6,10 5,10 5,9 3,9 3,7 2,7 2,6 3,6 3,3 4,3 4,2 z"
       style="fill:#595420;fill-opacity:1;stroke:#000000;stroke-width:0;stroke-linecap:butt;stroke-linejoin:miter;stroke-miterlimit:4;stroke-opacity:1;stroke-dasharray:none" />
    <path
       inkscape:connector-curvature="0"
       id="path4447"
       d="M 6,3 6,4 5,4 5,5 6,5 6,4 7,4 7,3 z"
       style="fill:#595420;fill-opacity:1;stroke:#000000;stroke-width:0;stroke-linecap:butt;stroke-linejoin:miter;stroke-miterlimit:4;stroke-opacity:1;stroke-dasharray:none" />
    <path
       inkscape:connector-curvature="0"
       id="path4457"
       d="m 12,5 0,1 1,0 0,-1 z"
       style="fill:#cc9078;stroke:#000000;stroke-width:0;stroke-linecap:butt;stroke-linejoin:miter;stroke-opacity:1;stroke-miterlimit:4;stroke-dasharray:none;fill-opacity:1" />
  </g>
</svg>
